<svg xmlns="http://www.w3.org/2000/svg" width="40" height="380" fill="none" viewBox="0 0 32 32">
    <path fill="#fff" fill-rule="evenodd" d="M4 16c0 6.627 5.373 11.999 12 11.999s12-5.372 12-12C28 9.372 22.627 4 16 4S4 9.372 4 16zm21.818 0c0 5.422-4.396 9.817-9.818 9.817S6.182 21.422 6.182 16c0-5.422 4.396-9.817 9.818-9.817s9.818 4.395 9.818 9.817z" clip-rule="evenodd"/>
    <path fill="#fff" d="M14.91 9.454c0-.602.488-1.09 1.09-1.09.602 0 1.09.488 1.09 1.09V16c0 .17-.038.337-.114.488l-2.182 4.364c-.27.539-.925.757-1.464.488-.539-.27-.757-.925-.488-1.464l2.067-4.133V9.454z"/>
</svg>
