<svg xmlns="http://www.w3.org/2000/svg" width="1113" height="208" viewBox="0 0 1113 208">
    <defs>
        <linearGradient id="5g88ziep3a" x1="4.297%" x2="103.774%" y1="49.033%" y2="51.16%">
            <stop offset="0%" stop-color="#006FBA"/>
            <stop offset="50.526%" stop-color="#1EBAED"/>
            <stop offset="100%" stop-color="#89CB34"/>
        </linearGradient>
    </defs>
    <g fill="none" fill-rule="evenodd">
        <g fill="url(#5g88ziep3a)" transform="translate(-404 -436)">
            <g>
                <path d="M593.874.103c-4.237 0-8.47.463-12.702 1.383-4.236.925-8.24 2.26-12.011 4.01-3.776 1.754-7.228 3.87-10.355 6.358-3.132 2.49-5.617 5.21-7.456 8.156V7.837h-19.87v137.69h19.87v-82.94c0-5.344 1.147-10.598 3.451-15.76 2.301-5.158 5.386-9.719 9.253-13.684 3.866-3.963 8.376-7.141 13.532-9.539 5.152-2.394 10.584-3.594 16.294-3.594 5.703 0 11.137 1.105 16.292 3.317 5.152 2.213 9.665 5.254 13.532 9.125 3.867 3.87 6.904 8.388 9.114 13.546 2.208 5.162 3.313 10.691 3.313 16.59v82.94h19.87v-82.94c0-8.478-1.657-16.542-4.97-24.193-3.313-7.646-7.778-14.281-13.391-19.907-5.618-5.62-12.197-10.09-19.743-13.407-7.551-3.318-15.559-4.978-24.023-4.978zM712.29 6.082c-9.227 3.965-17.297 9.4-24.213 16.31-6.92 6.913-12.362 14.977-16.327 24.193-3.97 9.217-5.95 19.077-5.95 29.582 0 10.505 1.98 20.369 5.95 29.582 3.965 9.218 9.408 17.28 16.327 24.19 6.916 6.913 14.986 12.352 24.213 16.313 9.22 3.961 19.093 5.943 29.608 5.943 10.516 0 20.383-1.982 29.61-5.943 9.221-3.961 17.294-9.4 24.213-16.312 6.919-6.911 12.355-14.973 16.325-24.191 3.965-9.213 5.95-19.077 5.95-29.582 0-10.505-1.985-20.365-5.95-29.582-3.97-9.216-9.406-17.28-16.325-24.192-6.92-6.911-14.992-12.346-24.213-16.311-9.227-3.963-19.094-5.945-29.61-5.945-10.515 0-20.387 1.982-29.608 5.945zm7.61 122.338c-6.919-2.947-12.964-7.004-18.126-12.166-5.168-5.158-9.228-11.196-12.177-18.108-2.952-6.913-4.428-14.238-4.428-21.98 0-7.74 1.476-15.068 4.428-21.979 2.95-6.911 7.01-12.947 12.177-18.11 5.162-5.157 11.207-9.212 18.126-12.163 6.916-2.946 14.25-4.423 21.998-4.423 7.748 0 15.08 1.477 22 4.423 6.917 2.95 12.956 7.006 18.125 12.163 5.163 5.163 9.223 11.199 12.176 18.11 2.948 6.91 4.427 14.239 4.427 21.98s-1.479 15.066-4.427 21.979c-2.953 6.912-7.013 12.95-12.176 18.108-5.169 5.162-11.208 9.219-18.126 12.166-6.919 2.95-14.25 4.422-21.999 4.422-7.748 0-15.082-1.472-21.998-4.422zM294.65 7.915c-9.132 3.966-17.114 9.31-23.937 16.036-6.827 6.73-12.223 14.653-16.189 23.776-3.969 9.124-5.949 18.94-5.949 29.445 0 10.507 1.98 20.32 5.95 29.444 3.965 9.123 9.36 17.051 16.188 23.777 6.823 6.73 14.805 12.074 23.938 16.035 9.131 3.961 18.954 5.943 29.47 5.943 10.515 0 20.339-1.982 29.47-5.943 9.13-3.961 17.062-9.306 23.798-16.035 6.732-6.726 12.081-14.654 16.05-23.777 3.965-9.124 5.95-18.937 5.95-29.444 0-10.506-1.985-20.321-5.95-29.445-3.969-9.123-9.318-17.046-16.05-23.776-6.736-6.726-14.667-12.07-23.798-16.036-9.131-3.96-18.955-5.943-29.47-5.943-10.516 0-20.339 1.982-29.47 5.943zm12.534 108.931c-5.275-2.304-9.853-5.392-13.74-9.263-3.888-3.87-6.988-8.433-9.3-13.685-2.315-5.252-3.469-10.825-3.469-16.726 0-5.897 1.154-11.475 3.468-16.727 2.313-5.253 5.413-9.814 9.301-13.685 3.887-3.87 8.465-6.955 13.74-9.263 5.275-2.302 10.874-3.455 16.798-3.455 5.924 0 11.517 1.153 16.794 3.455 5.275 2.308 9.853 5.393 13.74 9.263 3.887 3.87 6.987 8.432 9.3 13.685 2.313 5.252 3.472 10.83 3.472 16.727 0 5.9-1.159 11.474-3.472 16.726-2.313 5.252-5.413 9.815-9.3 13.685-3.887 3.87-8.465 6.96-13.74 9.263-5.277 2.306-10.87 3.456-16.794 3.456-5.924 0-11.523-1.15-16.798-3.456zM439.677 5.9c-5.99 2.304-11.24 5.43-15.751 9.387-4.516 3.96-8.109 8.607-10.778 13.942-2.672 5.34-4.006 11.043-4.006 17.119 0 10.308 3.222 18.82 9.67 25.536 6.448 6.721 14.094 11.367 22.936 13.942l15.476 4.693c4.602 1.477 8.194 2.898 10.776 4.28 2.578 1.379 4.558 2.761 5.941 4.142 1.382 1.38 2.254 2.854 2.625 4.417.368 1.566.552 3.174.552 4.832 0 3.682-1.705 7.176-5.11 10.49-3.413 3.312-7.877 4.97-13.404 4.97-3.687 0-6.77-.692-9.257-2.071-2.487-1.381-4.516-3.08-6.08-5.108-1.566-2.024-2.719-4.323-3.453-6.902-.738-2.576-1.104-5.15-1.104-7.731h-32.331c0 7.365 1.381 14.176 4.145 20.432 2.762 6.258 6.492 11.643 11.19 16.15 4.698 4.513 10.177 8.053 16.442 10.628 6.262 2.575 12.893 3.866 19.895 3.866 6.815 0 13.355-1.014 19.62-3.037 6.261-2.027 11.788-4.921 16.58-8.696 4.788-3.77 8.61-8.374 11.467-13.805 2.855-5.425 4.284-11.638 4.284-18.635 0-12.147-3.088-21.81-9.257-28.99-6.174-7.176-14.231-12.513-24.18-16.012l-15.198-5.246c-2.03-.732-4.239-1.47-6.631-2.208-2.397-.733-4.654-1.656-6.77-2.76-2.12-1.104-3.868-2.485-5.25-4.142-1.38-1.656-2.074-3.589-2.074-5.798 0-4.232 1.659-7.454 4.974-9.662 3.318-2.209 7.092-3.313 11.33-3.313 2.764 0 5.065.51 6.909 1.519 1.839 1.014 3.316 2.208 4.42 3.589 1.107 1.38 1.936 2.808 2.488 4.279.553 1.475.92 2.669 1.105 3.588H504.2c-.372-3.864-1.52-8.186-3.455-12.975-1.934-4.783-4.745-9.249-8.429-13.39-3.686-4.14-8.288-7.635-13.816-10.491-5.526-2.852-12.159-4.28-19.896-4.28-6.632 0-12.944 1.153-18.927 3.451zM236.39 4.07c-4.753.824-9.592 2.202-14.525 4.13-4.933 1.926-9.73 4.452-14.388 7.573-4.66 3.123-8.818 6.98-12.472 11.566V9.16h-31.792v137.69h31.792V85.994c0-7.712 1.508-14.637 4.523-20.79 3.014-6.15 6.895-11.335 11.648-15.56 4.75-4.222 10.094-7.435 16.034-9.638 5.936-2.203 11.827-3.305 17.678-3.305l4.385-33.871c-3.838 0-8.132.413-12.883 1.24zM44.674 9.614c-8.907 3.869-16.663 9.081-23.265 15.643-6.605 6.565-11.822 14.294-15.657 23.194C1.914 57.352 0 66.925 0 77.173c0 10.249 1.914 19.823 5.752 28.723 3.835 8.9 9.052 16.632 15.657 23.193 6.602 6.565 14.358 11.777 23.265 15.643 8.909 3.862 18.49 5.798 28.749 5.798 7.735 0 15.292-1.037 22.674-3.102 7.377-2.07 14.306-5.348 20.784-9.845 6.48-4.49 12.236-10.336 17.276-17.529 5.036-7.189 9.086-15.912 12.147-26.16h-34.28c-3.063 7.732-7.922 13.89-14.576 18.475-6.66 4.584-14.671 6.876-24.025 6.876-5.581 0-10.89-1.033-15.927-3.1-5.04-2.066-9.448-4.898-13.227-8.496-3.778-3.595-6.84-7.822-9.176-12.676-2.342-4.854-3.604-10.068-3.78-15.643h115.802c-.182-9.885-2.026-19.417-5.534-28.587-3.509-9.17-8.415-17.213-14.712-24.138-6.301-6.918-13.947-12.447-22.945-16.586-9-4.133-19.164-6.201-30.501-6.201-10.259 0-19.84 1.934-28.749 5.797zm4.393 28.764c7.009-5.433 15.22-8.154 24.629-8.154 9.408 0 17.614 2.72 24.627 8.154 7.01 5.44 11.9 12.028 14.667 19.77H34.401c2.766-7.742 7.654-14.33 14.666-19.77zm989.774-30.542v82.39c0 5.9-1.112 11.431-3.335 16.589-2.224 5.162-5.238 9.675-9.036 13.547-3.799 3.87-8.295 6.91-13.481 9.123-5.19 2.21-10.75 3.318-16.677 3.318-5.746 0-11.167-1.058-16.262-3.18-5.098-2.118-9.59-5.067-13.481-8.847-3.892-3.775-6.948-8.247-9.172-13.409-2.225-5.158-3.337-10.873-3.337-17.14V7.837h-19.87v82.39c0 5.9-1.152 11.43-3.452 16.588-2.305 5.162-5.386 9.675-9.253 13.547-3.865 3.87-8.379 6.91-13.532 9.123-5.155 2.21-10.588 3.318-16.292 3.318-5.895 0-11.418-1.107-16.57-3.318-5.157-2.213-9.62-5.254-13.392-9.123-3.777-3.872-6.767-8.385-8.976-13.547-2.21-5.158-3.315-10.688-3.315-16.589V7.837h-19.87v82.39c0 8.665 1.617 16.773 4.855 24.329 3.235 7.56 7.63 14.147 13.18 19.767 5.548 5.626 12.067 10.091 19.56 13.41 7.49 3.317 15.578 4.976 24.276 4.976 11.099 0 21.178-2.583 30.242-7.741 9.06-5.157 16.46-12.164 22.197-21.012 5.547 8.848 12.9 15.855 22.056 21.012 9.156 5.158 19.283 7.74 30.38 7.74 8.506 0 16.553-1.658 24.14-4.974 7.582-3.32 14.241-7.785 19.976-13.41 5.73-5.62 10.218-12.209 13.456-19.768 3.234-7.556 4.855-15.664 4.855-24.329V7.837h-19.87z" transform="translate(404 436) translate(21.967 24.394)"/>
            </g>
        </g>
    </g>
</svg>
