<svg xmlns="http://www.w3.org/2000/svg" width="24" height="24" viewBox="0 0 24 24">
    <g fill="none" fill-rule="evenodd">
        <g fill="#FFF" fill-rule="nonzero">
            <path d="M1 9c.513 0 .936.386.993.883L2 10v6.4c0 .298.218.546.503.592L2.6 17h9.6c.298 0 .546-.218.592-.503l.008-.097V12c0-.552.448-1 1-1 .513 0 .936.386.993.883L14.8 12v4.4c0 1.38-1.076 2.51-2.436 2.595L12.2 19H2.6C1.22 19 .09 17.924.005 16.564L0 16.4V10c0-.552.448-1 1-1zM16.507 3.493c.36.36.388.928.083 1.32l-.083.094-3.2 3.2c-.39.39-1.024.39-1.414 0-.36-.36-.388-.928-.083-1.32l.083-.094L14.385 4.2l-2.492-2.493c-.36-.36-.388-.928-.083-1.32l.083-.094c.36-.36.928-.388 1.32-.083l.094.083 3.2 3.2z" transform="translate(4 2)"/>
            <path d="M13.967 3.146c.552-.018 1.014.415 1.032.967.019.552-.414 1.014-.966 1.032-.157.005-.473.04-.892.134-.707.158-1.414.423-2.068.816-.922.556-1.665 1.325-2.179 2.352-.567 1.136-.747 2.798-.5 4.986.062.549-.333 1.044-.882 1.106-.549.062-1.044-.333-1.106-.882-.286-2.539-.066-4.573.7-6.104.69-1.38 1.7-2.427 2.935-3.17 1.462-.882 2.91-1.204 3.926-1.237z" transform="translate(4 2)"/>
        </g>
        <path fill="#D8D8D8" fill-opacity=".4" d="M0 0H24V24H0z" opacity=".01"/>
    </g>
</svg>
