<?xml version="1.0" encoding="UTF-8"?>
<svg width="60px" height="60px" viewBox="0 0 60 60" version="1.1" xmlns="http://www.w3.org/2000/svg" xmlns:xlink="http://www.w3.org/1999/xlink">
    <!-- Generator: sketchtool 62 (101010) - https://sketch.com -->
    <title>2D36AC2A-E77B-44DE-9CAD-86D1496E33F7</title>
    <desc>Created with sketchtool.</desc>
    <g id="Page-1" stroke="none" stroke-width="1" fill="none" fill-rule="evenodd" opacity="0.5">
        <g id="sports_timelineMarker_2" transform="translate(-230.000000, -792.000000)">
            <g id="Group-13" transform="translate(40.000000, 792.000000)">
                <g id="Group-9" transform="translate(190.000000, 0.000000)">
                    <g id="Group-120-Copy">
                        <path d="M45.342312,14.8148148 C46.8919325,14.8148148 48.1481481,16.073822 48.1481481,17.6268861 L48.1481481,42.3731139 C48.1481481,43.926178 46.8919325,45.1851852 45.342312,45.1851852 L13.9169473,45.1851852 C12.3673267,45.1851852 11.1111111,43.926178 11.1111111,42.3731139 L11.1111111,17.6268861 C11.1111111,16.073822 12.3673267,14.8148148 13.9169473,14.8148148 L45.342312,14.8148148 Z M42.3611111,18.5185185 L17.6388889,18.5185185 C16.5383215,18.5185185 15.6370752,19.371914 15.5607864,20.4530687 L15.5555556,20.6018519 L15.5555556,38.6574074 C15.5555556,39.7579748 16.408951,40.6592211 17.4901057,40.7355099 L17.6388889,40.7407407 L42.3611111,40.7407407 C43.4616785,40.7407407 44.3629248,39.8873453 44.4392136,38.8061906 L44.4444444,38.6574074 L44.4444444,20.6018519 C44.4444444,19.4512586 43.5117043,18.5185185 42.3611111,18.5185185 Z M34.3484225,34.7325103 C35.2575332,34.7325103 35.994513,35.4694901 35.994513,36.3786008 C35.994513,37.2877115 35.2575332,38.0246914 34.3484225,38.0246914 L26.1179698,38.0246914 C25.2088591,38.0246914 24.4718793,37.2877115 24.4718793,36.3786008 C24.4718793,35.4694901 25.2088591,34.7325103 26.1179698,34.7325103 L34.3484225,34.7325103 Z M39.8353909,29.7942387 C40.7445016,29.7942387 41.4814815,30.5312185 41.4814815,31.4403292 C41.4814815,32.3494399 40.7445016,33.0864198 39.8353909,33.0864198 L20.0823045,33.0864198 C19.1731938,33.0864198 18.436214,32.3494399 18.436214,31.4403292 C18.436214,30.5312185 19.1731938,29.7942387 20.0823045,29.7942387 L39.8353909,29.7942387 Z" id="Combined-Shape" fill="#FFFFFF" fill-rule="nonzero"></path>
                        <rect id="Rectangle-26" stroke-opacity="0.01" stroke="#FFFFFF" stroke-width="1.11111111" x="0.555555556" y="0.555555556" width="58.1481481" height="58.1481481"></rect>
                    </g>
                </g>
            </g>
        </g>
    </g>
</svg>