<?xml version="1.0" encoding="UTF-8"?>
<svg width="60px" height="60px" viewBox="0 0 60 60" version="1.1" xmlns="http://www.w3.org/2000/svg" xmlns:xlink="http://www.w3.org/1999/xlink">
    <!-- Generator: sketchtool 62 (101010) - https://sketch.com -->
    <title>BC9E54A3-6C31-4D9C-975F-3FDF71DC1AA1</title>
    <desc>Created with sketchtool.</desc>
    <g id="Page-1" stroke="none" stroke-width="1" fill="none" fill-rule="evenodd" opacity="0.5">
        <g id="sports_timelineMarker_2" transform="translate(-40.000000, -792.000000)">
            <g id="Group-13" transform="translate(40.000000, 792.000000)">
                <g id="Group-10">
                    <g id="Group-120-Copy">
                        <path d="M45.342312,14.8148148 C46.8919325,14.8148148 48.1481481,16.073822 48.1481481,17.6268861 L48.1481481,42.3731139 C48.1481481,43.926178 46.8919325,45.1851852 45.342312,45.1851852 L13.9169473,45.1851852 C12.3673267,45.1851852 11.1111111,43.926178 11.1111111,42.3731139 L11.1111111,17.6268861 C11.1111111,16.073822 12.3673267,14.8148148 13.9169473,14.8148148 L45.342312,14.8148148 Z M42.3611111,18.5185185 L17.6388889,18.5185185 C16.4882957,18.5185185 15.5555556,19.4512586 15.5555556,20.6018519 L15.5555556,20.6018519 L15.5555556,38.6574074 C15.5555556,39.8080006 16.4882957,40.7407407 17.6388889,40.7407407 L17.6388889,40.7407407 L42.3611111,40.7407407 C43.5117043,40.7407407 44.4444444,39.8080006 44.4444444,38.6574074 L44.4444444,38.6574074 L44.4444444,20.6018519 C44.4444444,19.4512586 43.5117043,18.5185185 42.3611111,18.5185185 L42.3611111,18.5185185 Z" id="Combined-Shape" fill="#FFFFFF" fill-rule="nonzero"></path>
                        <rect id="Rectangle-26" stroke-opacity="0.01" stroke="#FFFFFF" stroke-width="1.11111111" x="0.555555556" y="0.555555556" width="58.1481481" height="58.1481481"></rect>
                        <path d="M27.4472136,24.7236068 L36.2111456,29.1055728 C36.7051241,29.3525621 36.9053485,29.9532351 36.6583592,30.4472136 C36.5615955,30.640741 36.404673,30.7976635 36.2111456,30.8944272 L27.4472136,35.2763932 C26.9532351,35.5233825 26.3525621,35.3231581 26.1055728,34.8291796 C26.0361451,34.6903242 26,34.5372111 26,34.381966 L26,25.618034 C26,25.0657492 26.4477153,24.618034 27,24.618034 C27.1552451,24.618034 27.3083582,24.6541791 27.4472136,24.7236068 Z" id="Rectangle" fill="#FFFFFF"></path>
                    </g>
                </g>
            </g>
        </g>
    </g>
</svg>