<svg xmlns="http://www.w3.org/2000/svg" width="194" height="28" viewBox="0 0 194 28">
    <g fill="none" fill-rule="evenodd" opacity=".5">
        <g fill="#FFF">
            <path d="M1754.8 80c-.783 0-1.564.085-2.346.253-.782.17-1.52.413-2.217.733-.697.321-1.335.708-1.912 1.163-.578.456-1.037.953-1.376 1.492v-2.226h-3.669V106.6h3.669V91.43c0-.978.211-1.94.637-2.884.425-.943.994-1.777 1.708-2.503.714-.724 1.546-1.306 2.498-1.744.951-.438 1.954-.658 3.008-.658 1.053 0 2.056.202 3.008.607.951.405 1.784.96 2.498 1.669.714.708 1.275 1.534 1.683 2.478.407.944.611 1.955.611 3.034V106.6h3.669V91.43c0-1.551-.306-3.026-.918-4.426-.611-1.398-1.436-2.612-2.472-3.641-1.037-1.028-2.252-1.846-3.645-2.452-1.394-.607-2.872-.911-4.435-.911zm21.629 1.084c-1.683.723-3.154 1.713-4.416 2.973-1.261 1.26-2.254 2.73-2.977 4.41-.724 1.68-1.085 3.478-1.085 5.393 0 1.915.361 3.713 1.085 5.393.723 1.68 1.716 3.15 2.977 4.41 1.262 1.26 2.733 2.251 4.416 2.974 1.681.722 3.481 1.083 5.399 1.083 1.918 0 3.717-.361 5.4-1.083 1.681-.723 3.153-1.714 4.415-2.974 1.262-1.26 2.253-2.73 2.977-4.41.723-1.68 1.085-3.478 1.085-5.393 0-1.915-.362-3.712-1.085-5.393-.724-1.68-1.715-3.15-2.977-4.41-1.262-1.26-2.734-2.25-4.415-2.973-1.683-.723-3.482-1.084-5.4-1.084-1.918 0-3.718.361-5.4 1.084zm1.603 22.737c-1.282-.546-2.403-1.298-3.36-2.254-.957-.956-1.71-2.074-2.256-3.355-.547-1.28-.82-2.638-.82-4.072 0-1.434.273-2.792.82-4.072.547-1.28 1.299-2.399 2.257-3.355.956-.956 2.077-1.707 3.359-2.254 1.282-.545 2.64-.819 4.077-.819 1.435 0 2.794.274 4.076.82 1.282.546 2.402 1.297 3.36 2.253.956.956 1.709 2.075 2.256 3.355.546 1.28.82 2.638.82 4.072 0 1.434-.274 2.791-.82 4.072-.547 1.28-1.3 2.4-2.256 3.355-.958.956-2.078 1.708-3.36 2.254s-2.64.819-4.076.819c-1.436 0-2.795-.273-4.077-.82zm-78.137-22.446c-1.68.731-3.15 1.716-4.405 2.956-1.256 1.24-2.25 2.7-2.979 4.382-.73 1.682-1.095 3.49-1.095 5.427 0 1.936.365 3.745 1.095 5.427.73 1.681 1.723 3.143 2.98 4.382 1.255 1.24 2.724 2.226 4.404 2.956 1.68.73 3.489 1.095 5.424 1.095 1.935 0 3.743-.365 5.423-1.095 1.68-.73 3.14-1.716 4.38-2.956 1.239-1.24 2.223-2.7 2.953-4.382.73-1.682 1.096-3.49 1.096-5.427 0-1.936-.366-3.745-1.096-5.427-.73-1.681-1.714-3.142-2.953-4.382-1.24-1.24-2.7-2.225-4.38-2.956-1.68-.73-3.488-1.095-5.423-1.095s-3.743.365-5.424 1.095zm2.494 20.117c-.956-.419-1.786-.98-2.49-1.684-.705-.703-1.267-1.533-1.687-2.487-.419-.955-.628-1.968-.628-3.041 0-1.072.209-2.086.628-3.04.42-.955.982-1.785 1.686-2.488.705-.704 1.535-1.264 2.49-1.684.957-.418 1.972-.628 3.046-.628 1.073 0 2.087.21 3.044.628.956.42 1.786.98 2.49 1.684.705.703 1.267 1.533 1.686 2.487.42.955.63 1.97.63 3.041 0 1.073-.21 2.086-.63 3.04-.42.955-.981 1.785-1.686 2.488-.704.704-1.534 1.265-2.49 1.684-.957.42-1.97.628-3.044.628s-2.09-.209-3.045-.628zm24.029-20.576c-1.102.424-2.068 1-2.898 1.729-.83.73-1.492 1.586-1.983 2.569-.491.983-.737 2.034-.737 3.153 0 1.9.593 3.467 1.78 4.705 1.185 1.238 2.592 2.094 4.219 2.568l2.847.865c.846.272 1.507.534 1.982.788.475.255.839.51 1.093.764.255.254.415.525.483.813.068.289.102.585.102.89 0 .679-.314 1.322-.94 1.933-.628.61-1.45.916-2.466.916-.678 0-1.246-.128-1.703-.382-.458-.254-.831-.567-1.119-.94-.288-.374-.5-.797-.635-1.272-.136-.475-.203-.95-.203-1.425h-5.948c0 1.357.254 2.612.762 3.764.509 1.153 1.195 2.145 2.06 2.976.863.831 1.871 1.483 3.024 1.958 1.152.474 2.372.712 3.66.712 1.254 0 2.457-.187 3.61-.56 1.151-.373 2.168-.906 3.05-1.602.88-.694 1.584-1.542 2.11-2.543.525-1 .787-2.144.787-3.433 0-2.238-.568-4.018-1.703-5.34-1.135-1.323-2.618-2.306-4.448-2.95l-2.796-.967c-.373-.135-.78-.27-1.22-.407-.44-.135-.856-.305-1.245-.508-.39-.204-.712-.458-.966-.763-.254-.306-.382-.662-.382-1.069 0-.78.305-1.373.915-1.78.61-.407 1.305-.61 2.085-.61.508 0 .932.094 1.27.28.339.187.61.407.814.66.204.255.356.518.458.79.101.271.169.491.203.66h5.948c-.068-.711-.28-1.508-.636-2.39-.355-.881-.872-1.704-1.55-2.467-.678-.763-1.525-1.407-2.542-1.933-1.017-.525-2.237-.788-3.66-.788-1.22 0-2.382.212-3.482.636zm-37.352-.13c-.867.151-1.75.403-2.65.755-.9.352-1.775.814-2.624 1.384-.85.571-1.609 1.276-2.275 2.114v-3.322h-5.8v25.163h5.8V95.758c0-1.41.275-2.675.825-3.8.55-1.123 1.257-2.07 2.124-2.843.867-.771 1.842-1.359 2.925-1.761 1.083-.403 2.158-.604 3.225-.604l.8-6.19c-.7 0-1.483.075-2.35.226zm-34.893.836c-1.63.709-3.049 1.664-4.257 2.866-1.208 1.203-2.162 2.62-2.864 4.25S1646 92.122 1646 94c0 1.878.35 3.632 1.052 5.262.702 1.63 1.656 3.048 2.864 4.25 1.208 1.203 2.627 2.158 4.257 2.866 1.63.707 3.382 1.062 5.259 1.062 1.415 0 2.798-.19 4.148-.568 1.35-.38 2.617-.98 3.802-1.804 1.186-.823 2.239-1.894 3.16-3.212.922-1.317 1.663-2.915 2.223-4.793h-6.271c-.56 1.417-1.45 2.545-2.667 3.385-1.218.84-2.684 1.26-4.395 1.26-1.02 0-1.992-.189-2.914-.568-.922-.378-1.728-.897-2.42-1.556-.69-.66-1.25-1.434-1.678-2.323-.429-.89-.66-1.845-.692-2.866h21.185c-.033-1.811-.37-3.557-1.012-5.237-.642-1.68-1.54-3.154-2.691-4.423-1.153-1.268-2.552-2.28-4.198-3.039-1.646-.757-3.506-1.136-5.58-1.136-1.877 0-3.63.354-5.26 1.062zm.943 5.45c1.275-.98 2.77-1.472 4.48-1.472 1.712 0 3.205.491 4.481 1.472 1.275.982 2.165 2.17 2.669 3.568h-14.298c.503-1.397 1.392-2.586 2.668-3.568zm181.238-5.672v15.128c0 1.083-.204 2.098-.612 3.046-.408.947-.961 1.776-1.658 2.487-.697.71-1.522 1.269-2.474 1.675-.952.406-1.972.61-3.06.61-1.054 0-2.049-.195-2.984-.584-.935-.39-1.76-.931-2.474-1.625-.714-.693-1.275-1.514-1.683-2.462-.408-.947-.612-1.997-.612-3.147V81.4h-3.646v15.128c0 1.083-.211 2.098-.633 3.046-.423.947-.989 1.776-1.698 2.487-.71.71-1.538 1.269-2.483 1.675-.946.406-1.943.61-2.99.61-1.081 0-2.095-.204-3.04-.61-.946-.406-1.766-.965-2.458-1.675-.693-.71-1.241-1.54-1.647-2.487-.405-.948-.608-1.963-.608-3.046V81.4h-3.646v15.128c0 1.59.297 3.08.89 4.467.594 1.388 1.401 2.597 2.42 3.63 1.017 1.032 2.214 1.852 3.588 2.461 1.375.61 2.859.914 4.455.914 2.037 0 3.886-.474 5.55-1.421 1.662-.947 3.02-2.234 4.072-3.858 1.018 1.624 2.368 2.91 4.047 3.858 1.68.947 3.539 1.421 5.575 1.421 1.56 0 3.037-.305 4.43-.914 1.39-.609 2.613-1.429 3.665-2.462 1.052-1.032 1.875-2.241 2.47-3.63.592-1.387.89-2.875.89-4.466V81.4h-3.646z" transform="translate(-1646 -80)"/>
        </g>
    </g>
</svg>
