<svg xmlns="http://www.w3.org/2000/svg" width="32" height="32" viewBox="0 0 32 32">
    <g fill="none" fill-rule="evenodd">
        <g>
            <g>
                <g>
                    <path d="M0 0H32V32H0z" transform="translate(-80 -284) translate(80 188) translate(0 96)"/>
                    <path stroke="#FFF" stroke-linecap="round" stroke-linejoin="round" stroke-width="1.5" d="M27.598 12.746L16.005 4 4.402 12.746c-.24.221-.384.526-.402.853v13.355c.002.575.468 1.04 1.043 1.043H12V22.4c0-2.209 1.79-4 4-4s4 1.791 4 4V28h6.956c.576-.002 1.042-.467 1.044-1.043V13.599c-.018-.326-.162-.632-.402-.853z" transform="translate(-80 -284) translate(80 188) translate(0 96)"/>
                </g>
            </g>
        </g>
    </g>
</svg>
