<svg xmlns="http://www.w3.org/2000/svg" width="34" height="34" viewBox="0 0 34 34">
    <g fill="none" fill-rule="evenodd">
        <g>
            <g>
                <g>
                    <path stroke="#11161F" stroke-width=".5" d="M0 0H32V32H0z" transform="translate(-79 -475) translate(80 188) translate(0 288)"/>
                    <g stroke="#1EBAED" stroke-linecap="round" stroke-linejoin="round" stroke-width="1.5">
                        <path d="M1.2.533h21.867c.588 0 1.066.478 1.066 1.067v13.867c0 .588-.478 1.066-1.066 1.066H1.2c-.589 0-1.067-.478-1.067-1.066V1.6C.133 1.011.611.533 1.2.533zM3.333 16.533L.933 20.533M20.933 16.533L23.333 20.533" transform="translate(-79 -475) translate(80 188) translate(0 288) translate(3.867 5.467)"/>
                        <path d="M1.2.533h21.867c.588 0 1.066.478 1.066 1.067v13.867c0 .588-.478 1.066-1.066 1.066H1.2c-.589 0-1.067-.478-1.067-1.066V1.6C.133 1.011.611.533 1.2.533zM3.333 16.533L.933 20.533M20.933 16.533L23.333 20.533" transform="translate(-79 -475) translate(80 188) translate(0 288) translate(3.867 5.467)"/>
                    </g>
                </g>
            </g>
        </g>
    </g>
</svg>
