<svg xmlns="http://www.w3.org/2000/svg" width="33" height="33" viewBox="0 0 33 33">
    <g fill="none" fill-rule="evenodd">
        <g>
            <g>
                <g>
                    <path stroke="#0D1118" stroke-width=".01" d="M0 0H32V32H0z" transform="translate(-80 -380) translate(80 188) translate(0 192)"/>
                    <g stroke="#1EBAED" stroke-linecap="round" stroke-linejoin="round" stroke-width="1.5">
                        <path d="M1.833 11.667h15c.92 0 1.667.746 1.667 1.666v8.334c0 .92-.747 1.666-1.667 1.666h-15c-.92 0-1.666-.746-1.666-1.666v-8.334c0-.92.746-1.666 1.666-1.666zM18.5 20.369l5.541 2.078c.431.16.911-.057 1.072-.488.036-.093.054-.192.054-.292V14.07c-.001-.46-.374-.832-.834-.831-.1 0-.199.018-.292.053L18.5 15.371v4.998zM4.333 15L13.5 15M4.333 0C6.634 0 8.5 1.866 8.5 4.167c0 2.3-1.866 4.166-4.167 4.166-2.3 0-4.166-1.865-4.166-4.166S2.032 0 4.333 0zM15.167 1.667c1.84 0 3.333 1.492 3.333 3.333 0 1.841-1.492 3.333-3.333 3.333-1.841 0-3.334-1.492-3.334-3.333 0-1.841 1.493-3.333 3.334-3.333z" transform="translate(-80 -380) translate(80 188) translate(0 192) translate(3.333 4.667)"/>
                    </g>
                </g>
            </g>
        </g>
    </g>
</svg>
