<svg xmlns="http://www.w3.org/2000/svg" width="34" height="34" viewBox="0 0 34 34">
    <g fill="none" fill-rule="evenodd">
        <g>
            <g>
                <g>
                    <path stroke="#047FBF" stroke-opacity="0" stroke-width=".5" d="M0 0H32V32H0z" transform="translate(-79 -571) translate(80 188) translate(0 384)"/>
                    <g stroke="#1EBAED" stroke-linecap="round" stroke-linejoin="round" stroke-width="1.5">
                        <path d="M1.829 6.386h17.24c.866 0 1.568.703 1.568 1.568v12.539c0 .865-.702 1.567-1.568 1.567H1.83c-.866 0-1.568-.702-1.568-1.567V7.953c0-.864.702-1.567 1.568-1.567z" transform="translate(-79 -571) translate(80 188) translate(0 384) translate(6.4 3.867)"/>
                        <path d="M8.15 10.872c-.387-.193-.858-.036-1.051.351-.054.109-.083.23-.083.35v5.3c0 .433.352.784.784.784.121 0 .242-.029.35-.083l5.301-2.65c.388-.194.543-.666.349-1.053-.075-.15-.199-.273-.349-.349l-5.3-2.65zM1.829 22.06L1.829 23.627M19.069 22.06L19.069 23.627M14.602 2.233L13.667 3.169 10.449 6.386 4.18.117" transform="translate(-79 -571) translate(80 188) translate(0 384) translate(6.4 3.867)"/>
                    </g>
                </g>
            </g>
        </g>
    </g>
</svg>
