<svg xmlns="http://www.w3.org/2000/svg" width="100" height="100" viewBox="0 0 100 100">
    <g fill="none" fill-rule="evenodd">
        <g>
            <g transform="translate(-100 -100) translate(100 100)">
                <circle cx="50" cy="50" r="50" fill="#444"/>
                <path fill-rule="nonzero" stroke="#86888B" stroke-width="3.516" d="M49.367 62.305c6.785 0 12.305-5.52 12.305-12.305V32.305C61.672 25.52 56.152 20 49.367 20s-12.304 5.52-12.304 12.305V50c0 6.785 5.52 12.305 12.304 12.305z"/>
                <path fill="#86888B" fill-rule="nonzero" d="M66.945 44.727c-.97 0-1.757.787-1.757 1.757V50c0 8.723-7.097 15.82-15.82 15.82-8.724 0-15.821-7.097-15.821-15.82v-3.516c0-.97-.787-1.757-1.758-1.757-.97 0-1.758.787-1.758 1.757V50c0 10.07 7.737 18.364 17.578 19.255v7.23H38.82c-.97 0-1.758.786-1.758 1.757 0 .971.788 1.758 1.758 1.758h21.094c.97 0 1.758-.787 1.758-1.758 0-.97-.787-1.758-1.758-1.758h-8.789v-7.229c9.841-.89 17.578-9.186 17.578-19.255v-3.516c0-.97-.787-1.757-1.758-1.757z"/>
            </g>
        </g>
    </g>
</svg>
